{
  "accessors": [
    {
      "bufferView": 1,
      "componentType": 5126,
      "count": 736,
      "max": [
        42,
        -1,
        86
      ],
      "min": [
        -50,
        -44.5,
        -1
      ],
      "type": "VEC3"
    },
    {
      "bufferView": 1,
      "byteOffset": 8832,
      "componentType": 5126,
      "count": 736,
      "max": [
        1,
        1,
        1
      ],
      "min": [
        -1,
        -1,
        -1
      ],
      "type": "VEC3"
    },
    {
      "bufferView": 0,
      "componentType": 5125,
      "count": 2205,
      "max": [
        735
      ],
      "min": [
        0
      ],
      "type": "SCALAR"
    },
    {
      "bufferView": 1,
      "byteOffset": 17664,
      "componentType": 5126,
      "count": 320,
      "max": [
        32,
        -0,
        85
      ],
      "min": [
        -49,
        -16,
        0
      ],
      "type": "VEC3"
    },
    {
      "bufferView": 1,
      "byteOffset": 21504,
      "componentType": 5126,
      "count": 320,
      "max": [
        1,
        1,
        1
      ],
      "min": [
        -1,
        -1,
        -1
      ],
      "type": "VEC3"
    },
    {
      "bufferView": 0,
      "byteOffset": 8820,
      "componentType": 5125,
      "count": 480,
      "max": [
        319
      ],
      "min": [
        0
      ],
      "type": "SCALAR"
    },
    {
      "bufferView": 1,
      "byteOffset": 25344,
      "componentType": 5126,
      "count": 1262,
      "max": [
        21,
        -17,
        81
      ],
      "min": [
        17,
        -20,
        77
      ],
      "type": "VEC3"
    },
    {
      "bufferView": 1,
      "byteOffset": 40488,
      "componentType": 5126,
      "count": 1262,
      "max": [
        0.9999537467956543,
        1,
        0.9999537467956543
      ],
      "min": [
        -0.9999537467956543,
        -1,
        -0.9999537467956543
      ],
      "type": "VEC3"
    },
    {
      "bufferView": 0,
      "byteOffset": 10740,
      "componentType": 5125,
      "count": 7560,
      "max": [
        1261
      ],
      "min": [
        0
      ],
      "type": "SCALAR"
    },
    {
      "bufferView": 1,
      "byteOffset": 55632,
      "componentType": 5126,
      "count": 3796,
      "max": [
        63,
        -0,
        122
      ],
      "min": [
        -29,
        -30,
        56
      ],
      "type": "VEC3"
    },
    {
      "bufferView": 1,
      "byteOffset": 101184,
      "componentType": 5126,
      "count": 3796,
      "max": [
        1,
        1,
        1
      ],
      "min": [
        -1,
        -1,
        -1
      ],
      "type": "VEC3"
    },
    {
      "bufferView": 0,
      "byteOffset": 40980,
      "componentType": 5125,
      "count": 18228,
      "max": [
        3795
      ],
      "min": [
        0
      ],
      "type": "SCALAR"
    },
    {
      "bufferView": 1,
      "byteOffset": 146736,
      "componentType": 5126,
      "count": 3025,
      "max": [
        27.881999969482422,
        -10,
        79.805000305175781
      ],
      "min": [
        8.9289999008178711,
        -16.5,
        9
      ],
      "type": "VEC3"
    },
    {
      "bufferView": 1,
      "byteOffset": 183036,
      "componentType": 5126,
      "count": 3025,
      "max": [
        1,
        0.058240536600351334,
        1
      ],
      "min": [
        -1,
        -1,
        -1
      ],
      "type": "VEC3"
    },
    {
      "bufferView": 0,
      "byteOffset": 113892,
      "componentType": 5125,
      "count": 15507,
      "max": [
        3024
      ],
      "min": [
        0
      ],
      "type": "SCALAR"
    },
    {
      "bufferView": 1,
      "byteOffset": 219336,
      "componentType": 5126,
      "count": 1181,
      "max": [
        57,
        -0,
        75
      ],
      "min": [
        -44,
        -46,
        2
      ],
      "type": "VEC3"
    },
    {
      "bufferView": 1,
      "byteOffset": 233508,
      "componentType": 5126,
      "count": 1181,
      "max": [
        1,
        1,
        1
      ],
      "min": [
        -1,
        -1,
        -1
      ],
      "type": "VEC3"
    },
    {
      "bufferView": 0,
      "byteOffset": 175920,
      "componentType": 5125,
      "count": 5100,
      "max": [
        1180
      ],
      "min": [
        0
      ],
      "type": "SCALAR"
    }
  ],
  "asset": {
    "generator": "Sketchfab (OSG glTF plugin)",
    "version": "2.0"
  },
  "bufferViews": [
    {
      "buffer": 0,
      "byteLength": 196320,
      "byteOffset": 0,
      "name": "floatBufferViews",
      "target": 34963
    },
    {
      "buffer": 0,
      "byteLength": 247680,
      "byteOffset": 196320,
      "byteStride": 12,
      "name": "floatBufferViews",
      "target": 34962
    }
  ],
  "buffers": [
    {
      "byteLength": 444000,
      "uri": "scene.bin"
    }
  ],
  "materials": [
    {
      "doubleSided": true,
      "emissiveFactor": [
        0,
        0,
        0
      ],
      "name": "color_-1028593425",
      "pbrMetallicRoughness": {
        "baseColorFactor": [
          0.69019600000000003,
          0.90980399999999995,
          0.93725499999999995,
          1
        ],
        "metallicFactor": 0,
        "roughnessFactor": 1
      }
    },
    {
      "doubleSided": true,
      "emissiveFactor": [
        0,
        0,
        0
      ],
      "name": "color_14541540",
      "pbrMetallicRoughness": {
        "baseColorFactor": [
          0.86666699999999997,
          0.88627500000000003,
          0.89411799999999997,
          1
        ],
        "metallicFactor": 0,
        "roughnessFactor": 1
      }
    },
    {
      "doubleSided": true,
      "emissiveFactor": [
        0,
        0,
        0
      ],
      "name": "color_14789940",
      "pbrMetallicRoughness": {
        "baseColorFactor": [
          0.88235300000000005,
          0.67843100000000001,
          0.20392199999999999,
          1
        ],
        "metallicFactor": 0,
        "roughnessFactor": 1
      }
    },
    {
      "doubleSided": true,
      "emissiveFactor": [
        0,
        0,
        0
      ],
      "name": "color_16448250",
      "pbrMetallicRoughness": {
        "baseColorFactor": [
          0.98039200000000004,
          0.98039200000000004,
          0.98039200000000004,
          1
        ],
        "metallicFactor": 0,
        "roughnessFactor": 1
      }
    },
    {
      "doubleSided": true,
      "emissiveFactor": [
        0,
        0,
        0
      ],
      "name": "color_2829873",
      "pbrMetallicRoughness": {
        "baseColorFactor": [
          0.168627,
          0.180392,
          0.19215699999999999,
          1
        ],
        "metallicFactor": 0,
        "roughnessFactor": 1
      }
    },
    {
      "doubleSided": true,
      "emissiveFactor": [
        0,
        0,
        0
      ],
      "name": "color_6383466",
      "pbrMetallicRoughness": {
        "baseColorFactor": [
          0.38039200000000001,
          0.403922,
          0.415686,
          1
        ],
        "metallicFactor": 0,
        "roughnessFactor": 1
      }
    }
  ],
  "meshes": [
    {
      "primitives": [
        {
          "attributes": {
            "NORMAL": 1,
            "POSITION": 0
          },
          "indices": 2,
          "material": 0,
          "mode": 4
        }
      ]
    },
    {
      "primitives": [
        {
          "attributes": {
            "NORMAL": 4,
            "POSITION": 3
          },
          "indices": 5,
          "material": 1,
          "mode": 4
        }
      ]
    },
    {
      "primitives": [
        {
          "attributes": {
            "NORMAL": 7,
            "POSITION": 6
          },
          "indices": 8,
          "material": 2,
          "mode": 4
        }
      ]
    },
    {
      "primitives": [
        {
          "attributes": {
            "NORMAL": 10,
            "POSITION": 9
          },
          "indices": 11,
          "material": 3,
          "mode": 4
        }
      ]
    },
    {
      "primitives": [
        {
          "attributes": {
            "NORMAL": 13,
            "POSITION": 12
          },
          "indices": 14,
          "material": 4,
          "mode": 4
        }
      ]
    },
    {
      "primitives": [
        {
          "attributes": {
            "NORMAL": 16,
            "POSITION": 15
          },
          "indices": 17,
          "material": 5,
          "mode": 4
        }
      ]
    }
  ],
  "nodes": [
    {
      "children": [
        1
      ],
      "name": "RootNode (gltf orientation matrix)",
      "rotation": [
        -0.70710678118654746,
        -0,
        -0,
        0.70710678118654757
      ]
    },
    {
      "children": [
        2
      ],
      "matrix": [
        -0.99752128124237061,
        0.070365458726882935,
        0,
        0,
        0,
        0,
        -1,
        0,
        -0.070365458726882935,
        -0.99752128124237061,
        0,
        0,
        17.240865707397461,
        36.892646789550781,
        37.499977111816406,
        1
      ],
      "name": "RootNode (model correction matrix)"
    },
    {
      "children": [
        9
      ],
      "name": "tinker.obj.cleaner.materialmerger.gles"
    },
    {
      "mesh": 0,
      "name": ""
    },
    {
      "mesh": 1,
      "name": ""
    },
    {
      "mesh": 2,
      "name": ""
    },
    {
      "mesh": 3,
      "name": ""
    },
    {
      "mesh": 4,
      "name": ""
    },
    {
      "mesh": 5,
      "name": ""
    },
    {
      "children": [
        3,
        4,
        5,
        6,
        7,
        8
      ],
      "name": "Geode"
    }
  ],
  "scene": 0,
  "scenes": [
    {
      "name": "OSG_Scene",
      "nodes": [
        0
      ]
    }
  ]
}

