{
  "accessors": [
    {
      "bufferView": 2,
      "componentType": 5126,
      "count": 28068,
      "max": [
        1.8215219974517822,
        2.2409160137176514,
        1.8230304718017578
      ],
      "min": [
        -0.75303906202316284,
        0.21598696708679199,
        -1.4704664945602417
      ],
      "type": "VEC3"
    },
    {
      "bufferView": 2,
      "byteOffset": 336816,
      "componentType": 5126,
      "count": 28068,
      "max": [
        0.9998176097869873,
        0.99988698959350586,
        0.99995404481887817
      ],
      "min": [
        -0.9998176097869873,
        -0.99988698959350586,
        -0.99995404481887817
      ],
      "type": "VEC3"
    },
    {
      "bufferView": 3,
      "componentType": 5126,
      "count": 28068,
      "max": [
        0.99956405162811279,
        0.99949336051940918,
        0.99991238117218018,
        1
      ],
      "min": [
        -0.9999733567237854,
        -0.99989950656890869,
        -0.99915045499801636,
        -1
      ],
      "type": "VEC4"
    },
    {
      "bufferView": 3,
      "byteOffset": 449088,
      "componentType": 5126,
      "count": 28068,
      "max": [
        0.7764706015586853,
        0.65098041296005249,
        0.42745098471641541,
        1
      ],
      "min": [
        0.65882354974746704,
        0.59215688705444336,
        0.23137255012989044,
        1
      ],
      "type": "VEC4"
    },
    {
      "bufferView": 1,
      "componentType": 5126,
      "count": 28068,
      "max": [
        1,
        1
      ],
      "min": [
        0,
        0
      ],
      "type": "VEC2"
    },
    {
      "bufferView": 0,
      "componentType": 5125,
      "count": 65424,
      "max": [
        28067
      ],
      "min": [
        0
      ],
      "type": "SCALAR"
    },
    {
      "bufferView": 2,
      "byteOffset": 673632,
      "componentType": 5126,
      "count": 4452,
      "max": [
        1.2956169843673706,
        2.0600900650024414,
        1.4569824934005737
      ],
      "min": [
        -0.39474591612815857,
        0.29595866799354553,
        -0.79160803556442261
      ],
      "type": "VEC3"
    },
    {
      "bufferView": 2,
      "byteOffset": 727056,
      "componentType": 5126,
      "count": 4452,
      "max": [
        0.99299913644790649,
        0.99910318851470947,
        0.99953204393386841
      ],
      "min": [
        -0.99299913644790649,
        -0.99910318851470947,
        -0.99953204393386841
      ],
      "type": "VEC3"
    },
    {
      "bufferView": 3,
      "byteOffset": 898176,
      "componentType": 5126,
      "count": 4452,
      "max": [
        0.99711710214614868,
        0.9954754114151001,
        0.99859529733657837,
        1
      ],
      "min": [
        -0.99342083930969238,
        -0.99955058097839355,
        -0.99911302328109741,
        -1
      ],
      "type": "VEC4"
    },
    {
      "bufferView": 3,
      "byteOffset": 969408,
      "componentType": 5126,
      "count": 4452,
      "max": [
        0.7764706015586853,
        0.65098041296005249,
        0.23137255012989044,
        1
      ],
      "min": [
        0.7764706015586853,
        0.65098041296005249,
        0.23137255012989044,
        1
      ],
      "type": "VEC4"
    },
    {
      "bufferView": 1,
      "byteOffset": 224544,
      "componentType": 5126,
      "count": 4452,
      "max": [
        1,
        1
      ],
      "min": [
        0,
        0
      ],
      "type": "VEC2"
    },
    {
      "bufferView": 0,
      "byteOffset": 261696,
      "componentType": 5125,
      "count": 10416,
      "max": [
        4451
      ],
      "min": [
        0
      ],
      "type": "SCALAR"
    },
    {
      "bufferView": 2,
      "byteOffset": 780480,
      "componentType": 5126,
      "count": 61720,
      "max": [
        1.8953739404678345,
        2.1236813068389893,
        1.6863651275634766
      ],
      "min": [
        -0.80119335651397705,
        0.68613022565841675,
        -1.382970929145813
      ],
      "type": "VEC3"
    },
    {
      "bufferView": 2,
      "byteOffset": 1521120,
      "componentType": 5126,
      "count": 61720,
      "max": [
        0.99994707107543945,
        0.99986791610717773,
        0.99947571754455566
      ],
      "min": [
        -0.99994707107543945,
        -0.99986791610717773,
        -0.99947571754455566
      ],
      "type": "VEC3"
    },
    {
      "bufferView": 3,
      "byteOffset": 1040640,
      "componentType": 5126,
      "count": 61720,
      "max": [
        0.99943715333938599,
        0.99960064888000488,
        0.99933826923370361,
        1
      ],
      "min": [
        -0.99991720914840698,
        -0.99970352649688721,
        -0.99984943866729736,
        -1
      ],
      "type": "VEC4"
    },
    {
      "bufferView": 3,
      "byteOffset": 2028160,
      "componentType": 5126,
      "count": 61720,
      "max": [
        0.83137255907058716,
        0.89019608497619629,
        0.90588235855102539,
        1
      ],
      "min": [
        0.34509804844856262,
        0.58431375026702881,
        0.48627451062202454,
        1
      ],
      "type": "VEC4"
    },
    {
      "bufferView": 1,
      "byteOffset": 260160,
      "componentType": 5126,
      "count": 61720,
      "max": [
        1,
        1
      ],
      "min": [
        0,
        0
      ],
      "type": "VEC2"
    },
    {
      "bufferView": 0,
      "byteOffset": 303360,
      "componentType": 5125,
      "count": 92580,
      "max": [
        61719
      ],
      "min": [
        0
      ],
      "type": "SCALAR"
    },
    {
      "bufferView": 2,
      "byteOffset": 2261760,
      "componentType": 5126,
      "count": 44864,
      "max": [
        1.7129909992218018,
        2.1671710014343262,
        1.3983855247497559
      ],
      "min": [
        -0.8318476676940918,
        0.19538207352161407,
        -1.2561815977096558
      ],
      "type": "VEC3"
    },
    {
      "bufferView": 2,
      "byteOffset": 2800128,
      "componentType": 5126,
      "count": 44864,
      "max": [
        0.99509125947952271,
        0.99999809265136719,
        0.99417364597320557
      ],
      "min": [
        -0.99509125947952271,
        -0.99999809265136719,
        -0.99417364597320557
      ],
      "type": "VEC3"
    },
    {
      "bufferView": 3,
      "byteOffset": 3015680,
      "componentType": 5126,
      "count": 44864,
      "max": [
        0.99874716997146606,
        0.99535876512527466,
        0.99969577789306641,
        1
      ],
      "min": [
        -0.99995827674865723,
        -0.99495899677276611,
        -0.99969756603240967,
        -1
      ],
      "type": "VEC4"
    },
    {
      "bufferView": 3,
      "byteOffset": 3733504,
      "componentType": 5126,
      "count": 44864,
      "max": [
        0.34509804844856262,
        0.58431375026702881,
        0.48627451062202454,
        1
      ],
      "min": [
        0.34509804844856262,
        0.58431375026702881,
        0.48627451062202454,
        1
      ],
      "type": "VEC4"
    },
    {
      "bufferView": 1,
      "byteOffset": 753920,
      "componentType": 5126,
      "count": 44864,
      "max": [
        1,
        1
      ],
      "min": [
        0,
        0
      ],
      "type": "VEC2"
    },
    {
      "bufferView": 0,
      "byteOffset": 673680,
      "componentType": 5125,
      "count": 67296,
      "max": [
        44863
      ],
      "min": [
        0
      ],
      "type": "SCALAR"
    }
  ],
  "asset": {
    "generator": "Sketchfab (OSG glTF plugin)",
    "version": "2.0"
  },
  "bufferViews": [
    {
      "buffer": 0,
      "byteLength": 942864,
      "byteOffset": 0,
      "name": "floatBufferViews",
      "target": 34963
    },
    {
      "buffer": 0,
      "byteLength": 1112832,
      "byteOffset": 942864,
      "byteStride": 8,
      "name": "floatBufferViews",
      "target": 34962
    },
    {
      "buffer": 0,
      "byteLength": 3338496,
      "byteOffset": 2055696,
      "byteStride": 12,
      "name": "floatBufferViews",
      "target": 34962
    },
    {
      "buffer": 0,
      "byteLength": 4451328,
      "byteOffset": 5394192,
      "byteStride": 16,
      "name": "floatBufferViews",
      "target": 34962
    }
  ],
  "buffers": [
    {
      "byteLength": 9845520,
      "uri": "scene.bin"
    }
  ],
  "images": [
    {
      "uri": "textures/c515dad74393468181ad162ef052241b_OilPaint_baseColor.png"
    },
    {
      "uri": "textures/7a1c810750c54b709a39421576d6617e_Splatter_baseColor.png"
    },
    {
      "uri": "textures/c515dad74393468181ad162ef052241b_OilPaint_0_baseColor.png"
    },
    {
      "uri": "textures/7a1c810750c54b709a39421576d6617e_Splatter_0_baseColor.png"
    }
  ],
  "materials": [
    {
      "alphaCutoff": 0.20000000000000001,
      "alphaMode": "MASK",
      "doubleSided": true,
      "emissiveFactor": [
        1,
        1,
        1
      ],
      "name": "c515dad74393468181ad162ef052241b_OilPaint",
      "pbrMetallicRoughness": {
        "baseColorFactor": [
          1,
          1,
          1,
          1
        ],
        "baseColorTexture": {
          "index": 0,
          "texCoord": 0
        },
        "metallicFactor": 0,
        "roughnessFactor": 1
      }
    },
    {
      "alphaCutoff": 0.20000000000000001,
      "alphaMode": "MASK",
      "doubleSided": true,
      "emissiveFactor": [
        1,
        1,
        1
      ],
      "name": "c515dad74393468181ad162ef052241b_OilPaint_0",
      "pbrMetallicRoughness": {
        "baseColorFactor": [
          1,
          1,
          1,
          1
        ],
        "baseColorTexture": {
          "index": 2,
          "texCoord": 0
        },
        "metallicFactor": 0,
        "roughnessFactor": 1
      }
    },
    {
      "alphaCutoff": 0.20000000000000001,
      "alphaMode": "MASK",
      "doubleSided": true,
      "emissiveFactor": [
        1,
        1,
        1
      ],
      "name": "7a1c810750c54b709a39421576d6617e_Splatter",
      "pbrMetallicRoughness": {
        "baseColorFactor": [
          1,
          1,
          1,
          1
        ],
        "baseColorTexture": {
          "index": 1,
          "texCoord": 0
        },
        "metallicFactor": 0,
        "roughnessFactor": 1
      }
    },
    {
      "alphaCutoff": 0.20000000000000001,
      "alphaMode": "MASK",
      "doubleSided": true,
      "emissiveFactor": [
        1,
        1,
        1
      ],
      "name": "7a1c810750c54b709a39421576d6617e_Splatter_0",
      "pbrMetallicRoughness": {
        "baseColorFactor": [
          1,
          1,
          1,
          1
        ],
        "baseColorTexture": {
          "index": 3,
          "texCoord": 0
        },
        "metallicFactor": 0,
        "roughnessFactor": 1
      }
    }
  ],
  "meshes": [
    {
      "name": "Untitled_8_OilPaint_geo_c515dad74393468181ad162ef052241b_OilPaint_0",
      "primitives": [
        {
          "attributes": {
            "COLOR_0": 3,
            "NORMAL": 1,
            "POSITION": 0,
            "TANGENT": 2,
            "TEXCOORD_0": 4
          },
          "indices": 5,
          "material": 0,
          "mode": 4
        }
      ]
    },
    {
      "name": "Untitled_8_OilPaint_geo_c515dad74393468181ad162ef052241b_OilPaint_0",
      "primitives": [
        {
          "attributes": {
            "COLOR_0": 9,
            "NORMAL": 7,
            "POSITION": 6,
            "TANGENT": 8,
            "TEXCOORD_0": 10
          },
          "indices": 11,
          "material": 1,
          "mode": 4
        }
      ]
    },
    {
      "name": "Untitled_8_Splatter_geo_7a1c810750c54b709a39421576d6617e_Splatter_0",
      "primitives": [
        {
          "attributes": {
            "COLOR_0": 15,
            "NORMAL": 13,
            "POSITION": 12,
            "TANGENT": 14,
            "TEXCOORD_0": 16
          },
          "indices": 17,
          "material": 2,
          "mode": 4
        }
      ]
    },
    {
      "name": "Untitled_8_Splatter_geo_7a1c810750c54b709a39421576d6617e_Splatter_0",
      "primitives": [
        {
          "attributes": {
            "COLOR_0": 21,
            "NORMAL": 19,
            "POSITION": 18,
            "TANGENT": 20,
            "TEXCOORD_0": 22
          },
          "indices": 23,
          "material": 3,
          "mode": 4
        }
      ]
    }
  ],
  "nodes": [
    {
      "children": [
        1
      ],
      "name": "RootNode (gltf orientation matrix)",
      "rotation": [
        -0.70710678118654746,
        -0,
        -0,
        0.70710678118654757
      ]
    },
    {
      "children": [
        2
      ],
      "name": "RootNode (model correction matrix)"
    },
    {
      "children": [
        3
      ],
      "matrix": [
        1,
        0,
        0,
        0,
        0,
        0,
        1,
        0,
        0,
        -1,
        0,
        0,
        0,
        0,
        0,
        1
      ],
      "name": "Untitled_8.fbx"
    },
    {
      "children": [
        4,
        7,
        10,
        13
      ],
      "name": "RootNode"
    },
    {
      "children": [
        6
      ],
      "name": "Untitled_8_OilPaint_geo"
    },
    {
      "mesh": 0,
      "name": "Untitled_8_OilPaint_geo_c515dad74393468181ad162ef052241b_OilPaint_0"
    },
    {
      "children": [
        5
      ],
      "name": "Geode"
    },
    {
      "children": [
        9
      ],
      "name": "Untitled_8_OilPaint_geo"
    },
    {
      "mesh": 1,
      "name": "Untitled_8_OilPaint_geo_c515dad74393468181ad162ef052241b_OilPaint_0"
    },
    {
      "children": [
        8
      ],
      "name": "Geode"
    },
    {
      "children": [
        12
      ],
      "name": "Untitled_8_Splatter_geo"
    },
    {
      "mesh": 2,
      "name": "Untitled_8_Splatter_geo_7a1c810750c54b709a39421576d6617e_Splatter_0"
    },
    {
      "children": [
        11
      ],
      "name": "Geode"
    },
    {
      "children": [
        15
      ],
      "name": "Untitled_8_Splatter_geo"
    },
    {
      "mesh": 3,
      "name": "Untitled_8_Splatter_geo_7a1c810750c54b709a39421576d6617e_Splatter_0"
    },
    {
      "children": [
        14
      ],
      "name": "Geode"
    }
  ],
  "samplers": [
    {
      "magFilter": 9729,
      "minFilter": 9987,
      "wrapS": 10497,
      "wrapT": 10497
    }
  ],
  "scene": 0,
  "scenes": [
    {
      "name": "OSG_Scene",
      "nodes": [
        0
      ]
    }
  ],
  "textures": [
    {
      "sampler": 0,
      "source": 0
    },
    {
      "sampler": 0,
      "source": 1
    },
    {
      "sampler": 0,
      "source": 2
    },
    {
      "sampler": 0,
      "source": 3
    }
  ]
}

